<svg width="819" height="228" viewBox="0 0 819 228" fill="none" xmlns="http://www.w3.org/2000/svg">
<rect x="0.200439" y="161.814" width="818.599" height="65.5335" fill="black"/>
<rect x="0.200439" y="161.814" width="818.599" height="65.5335" fill="url(#paint0_linear_1226_585)"/>
<path d="M769.959 207.281H781.588H786.625H786.847C788.403 207.281 789.662 206.001 789.662 204.344V202.085C789.662 200.804 788.922 199.75 787.736 199.298C787.588 199.223 787.44 199.223 787.292 199.223H782.551H769.959H764.107H752.477H749.144C748.033 199.223 746.922 198.997 745.959 198.62C742.107 197.264 739.514 193.574 739.514 189.356V181.524C739.514 176.176 743.81 171.733 749.144 171.733H753.514H767.884H769.959H797.736C798.107 171.733 798.477 172.109 798.477 172.561V180.62C798.477 181.072 798.107 181.448 797.736 181.448H769.959H753.366H753.144C751.588 181.448 750.255 182.729 750.255 184.31V186.645C750.255 187.85 751.07 188.98 752.181 189.356C752.477 189.507 752.773 189.507 753.144 189.507H753.292H757.366H769.959H772.107H787.514H790.847C791.884 189.507 792.996 189.733 794.033 190.109C797.884 191.465 800.477 195.156 800.477 199.298V207.206C800.477 212.553 796.107 216.997 790.847 216.997H786.996L772.107 216.922H769.959H742.255C741.81 216.922 741.514 216.62 741.514 216.168V208.11V208.034C741.514 207.658 741.81 207.281 742.255 207.281H769.959Z" fill="black"/>
<path d="M701.569 189.507H687.865C687.42 189.507 687.124 189.884 687.124 190.335V198.394C687.124 198.846 687.42 199.223 687.865 199.223H701.569H715.717H729.494C729.865 199.223 730.235 198.846 730.235 198.394V190.335C730.235 189.884 729.865 189.507 729.494 189.507H715.717H701.569ZM680.087 202.536C680.087 205.172 682.235 207.281 684.828 207.281H712.013H728.383H729.494C729.865 207.281 730.235 207.658 730.235 208.11V216.168C730.235 216.62 729.865 216.922 729.494 216.922H728.383H712.013H682.828C675.346 216.922 669.346 210.821 669.346 203.214V185.44C669.346 177.908 675.346 171.733 682.828 171.733H712.013H728.383H729.494C729.865 171.733 730.235 172.109 730.235 172.561V180.62C730.235 181.072 729.865 181.448 729.494 181.448H728.383H712.013H684.828C682.235 181.448 680.087 183.557 680.087 186.193V202.536Z" fill="black"/>
<path d="M649.237 172.561C649.237 172.109 649.533 171.733 649.977 171.733H659.237C659.681 171.733 659.977 172.109 659.977 172.561V216.168C659.977 216.62 659.681 216.922 659.237 216.922H649.977C649.533 216.922 649.237 216.62 649.237 216.168V172.561Z" fill="black"/>
<path d="M618.328 207.281H629.143V199.223H618.328H597.587C597.143 199.223 596.847 198.846 596.847 198.394V190.335C596.847 189.884 597.143 189.507 597.587 189.507H618.328H639.217C639.587 189.507 639.958 189.884 639.958 190.335V216.168C639.958 216.62 639.587 216.922 639.217 216.922H618.328H592.476C585.069 216.922 579.069 210.746 579.069 203.214V185.44C579.069 183.482 579.439 181.524 580.254 179.716C582.18 175.649 585.958 172.712 590.328 171.959C591.069 171.808 591.81 171.733 592.55 171.733H618.328H639.217C639.587 171.733 639.958 172.109 639.958 172.561V180.62C639.958 181.072 639.587 181.448 639.217 181.448H618.328H594.55C591.958 181.448 589.81 183.557 589.81 186.193V202.536C589.81 205.172 591.958 207.281 594.55 207.281H618.328Z" fill="black"/>
<path d="M517.11 186.193V202.536C517.11 205.172 519.258 207.281 521.851 207.281H554.221C556.814 207.281 558.962 205.172 558.962 202.536V186.193C558.962 183.557 556.814 181.448 554.221 181.448H521.851C519.258 181.448 517.11 183.557 517.11 186.193ZM519.851 171.733H556.295C563.703 171.733 569.777 177.908 569.777 185.44V203.214C569.777 210.821 563.703 216.922 556.295 216.922H519.851C512.369 216.922 506.369 210.821 506.369 203.214V185.44C506.369 177.908 512.369 171.733 519.851 171.733Z" fill="black"/>
<path d="M496.264 207.281C496.708 207.281 497.005 207.658 497.005 208.11V216.168C497.005 216.62 496.708 216.922 496.264 216.922H456.264C454.116 216.922 452.042 216.47 450.19 215.491C449.746 215.189 449.301 214.963 448.931 214.737C445.153 212.177 442.857 207.884 442.857 203.214V172.561C442.857 172.109 443.153 171.733 443.597 171.733H452.857C453.301 171.733 453.597 172.109 453.597 172.561V202.536C453.597 205.172 455.746 207.281 458.338 207.281H496.264Z" fill="black"/>
<path d="M380.898 186.193V202.536C380.898 205.172 383.046 207.281 385.639 207.281H418.009C420.602 207.281 422.75 205.172 422.75 202.536V186.193C422.75 183.557 420.602 181.448 418.009 181.448H385.639C383.046 181.448 380.898 183.557 380.898 186.193ZM383.639 171.733H420.083C427.49 171.733 433.565 177.908 433.565 185.44V203.214C433.565 210.821 427.49 216.922 420.083 216.922H383.639C376.157 216.922 370.157 210.821 370.157 203.214V185.44C370.157 177.908 376.157 171.733 383.639 171.733Z" fill="black"/>
<path d="M299.917 172.561C299.917 172.109 300.214 171.733 300.658 171.733H313.621C317.028 171.733 319.917 173.164 322.139 175.8L324.139 178.21C324.139 178.285 324.139 178.285 324.139 178.285L344.88 203.365L346.065 204.796C346.658 205.549 347.547 206.001 348.51 206.001H350.065V172.561C350.065 172.109 350.436 171.733 350.806 171.733H360.139C360.51 171.733 360.88 172.109 360.88 172.561V216.168C360.88 216.62 360.51 216.922 360.139 216.922H347.176C343.769 216.922 340.806 215.566 338.658 212.93L336.658 210.52C336.658 210.444 336.584 210.444 336.584 210.444L315.843 185.365L314.658 183.934C314.065 183.181 313.251 182.729 312.288 182.729H310.658V216.168C310.658 216.62 310.362 216.922 309.917 216.922H300.658C300.214 216.922 299.917 216.62 299.917 216.168V172.561Z" fill="black"/>
<path d="M240.852 216.168C240.852 216.62 240.556 216.922 240.111 216.922H230.852C230.407 216.922 230.111 216.62 230.111 216.168V172.561C230.111 172.109 230.407 171.733 230.852 171.733H240.111C240.556 171.733 240.852 172.109 240.852 172.561V216.168ZM247.889 190.335C247.889 189.884 248.185 189.507 248.63 189.507H279.815V172.561C279.815 172.109 280.185 171.733 280.555 171.733H289.889C290.259 171.733 290.629 172.109 290.629 172.561V216.168C290.629 216.62 290.259 216.922 289.889 216.922H280.555C280.185 216.922 279.815 216.62 279.815 216.168V199.223H248.63C248.185 199.223 247.889 198.846 247.889 198.394V190.335Z" fill="black"/>
<path d="M159.943 203.214V185.44C159.943 177.908 165.943 171.733 173.425 171.733H202.61H218.98H220.091C220.462 171.733 220.832 172.109 220.832 172.561V180.62C220.832 181.072 220.462 181.448 220.091 181.448H218.98H202.61H175.425C172.832 181.448 170.684 183.557 170.684 186.193V202.536C170.684 205.172 172.832 207.281 175.425 207.281H202.61H218.98H220.091C220.462 207.281 220.832 207.658 220.832 208.11V216.168C220.832 216.62 220.462 216.922 220.091 216.922H218.98H202.61H173.425C165.943 216.922 159.943 210.821 159.943 203.214Z" fill="black"/>
<path d="M121.998 189.507H100.554C100.554 189.507 100.554 189.884 100.554 190.335V194.365V198.394C100.554 198.846 100.554 199.223 100.554 199.223H121.998H136.146H149.924C150.294 199.223 150.665 198.846 150.665 198.394V190.335C150.665 189.884 150.294 189.507 149.924 189.507H136.146H121.998ZM100.517 202.536C100.517 205.172 102.665 207.281 105.257 207.281H132.442H148.813H149.924C150.294 207.281 150.665 207.658 150.665 208.11V216.168C150.665 216.62 150.294 216.922 149.924 216.922H148.813H132.442H103.257C95.7759 216.922 89.7759 210.821 89.7759 203.214V185.44C89.7759 177.908 95.7759 171.733 103.257 171.733H132.442H148.813H149.924C150.294 171.733 150.665 172.109 150.665 172.561V180.62C150.665 181.072 150.294 181.448 149.924 181.448H148.813H132.442H105.257C102.665 181.448 100.517 183.557 100.517 186.193V202.536Z" fill="black"/>
<path d="M44.0785 181.448H43.3377H19.2637C18.8192 181.448 18.5229 181.072 18.5229 180.62V172.561C18.5229 172.109 18.8192 171.808 19.2637 171.808H58.5229H60.0044H79.708C80.1525 171.808 80.4488 172.109 80.4488 172.561V180.62C80.4488 181.072 80.1525 181.448 79.708 181.448H60.0044H58.5229H54.8933V216.168C54.8933 216.62 54.5229 216.997 54.1525 216.997H44.8192C44.4488 216.997 44.0785 216.62 44.0785 216.168V181.448Z" fill="black"/>
<rect x="97.4084" y="189.506" width="4.8125" height="9.71875" fill="black"/>
<rect x="237.792" y="189.506" width="11.708" height="9.71875" fill="black"/>
<rect x="679.658" y="189.505" width="9.03125" height="9.71875" fill="black"/>
<path d="M636.136 3.13467C636.136 1.78068 637.024 0.652344 638.355 0.652344H677.196C687.406 0.652344 696.062 4.94001 702.72 12.8383L708.713 20.0597C708.713 20.2853 708.713 20.2853 708.713 20.2853L770.859 95.4323L774.41 99.72C776.185 101.977 778.849 103.331 781.734 103.331H786.395V3.13467C786.395 1.78068 787.505 0.652344 788.615 0.652344H816.58C817.69 0.652344 818.8 1.78068 818.8 3.13467V133.796C818.8 135.15 817.69 136.278 816.58 136.278H777.739C767.529 136.278 758.651 131.99 752.215 124.092L746.222 116.871C746.222 116.645 746 116.645 746 116.645L683.855 41.498L680.304 37.2103C678.528 34.9537 676.087 33.5997 673.201 33.5997H668.318V133.796C668.318 135.15 667.431 136.278 666.099 136.278H638.355C637.024 136.278 636.136 135.15 636.136 133.796V3.13467Z" fill="black"/>
<path d="M522.439 53.9097H481.379C480.047 53.9097 479.159 55.038 479.159 56.392V80.5383C479.159 81.8923 480.047 82.795 481.379 82.795H522.439H564.831H606.114C607.224 82.795 608.333 81.8923 608.333 80.5383V56.392C608.333 55.038 607.224 53.9097 606.114 53.9097H564.831H522.439ZM458.074 92.95C458.074 100.848 464.51 107.167 472.279 107.167H553.734H602.785H606.114C607.224 107.167 608.333 108.295 608.333 109.649V133.796C608.333 135.15 607.224 136.052 606.114 136.052H602.785H553.734H466.286C443.869 136.052 425.891 117.773 425.891 94.981V41.7237C425.891 19.157 443.869 0.652344 466.286 0.652344H553.734H602.785H606.114C607.224 0.652344 608.333 1.78068 608.333 3.13467V27.281C608.333 28.635 607.224 29.7633 606.114 29.7633H602.785H553.734H472.279C464.51 29.7633 458.074 36.082 458.074 43.9803V92.95Z" fill="black"/>
<path d="M333.28 107.167H365.684V82.795H333.28H271.134C269.802 82.795 268.915 81.8923 268.915 80.5383V56.392C268.915 55.038 269.802 53.9097 271.134 53.9097H333.28H395.869C396.979 53.9097 398.089 55.038 398.089 56.392V133.796C398.089 135.15 396.979 136.052 395.869 136.052H333.28H255.82C233.625 136.052 215.647 117.548 215.647 94.981V41.7237C215.647 35.8563 216.757 29.989 219.198 24.573C224.969 12.1613 236.288 3.58601 249.383 1.32935C251.603 0.878008 253.822 0.652344 256.042 0.652344H333.28H395.869C396.979 0.652344 398.089 1.78068 398.089 3.13467V27.281C398.089 28.635 396.979 29.7633 395.869 29.7633H333.28H262.034C254.266 29.7633 247.83 36.082 247.83 43.9803V92.95C247.83 100.848 254.266 107.167 262.034 107.167H333.28Z" fill="black"/>
<path d="M0.200439 3.13443C0.200439 1.78043 1.08823 0.6521 2.41993 0.6521H85.4288H147.574C169.769 0.6521 187.969 19.1568 187.969 41.7234V94.9808C187.969 117.773 169.769 136.052 147.574 136.052H85.4288H2.41993C1.08823 136.052 0.200439 135.149 0.200439 133.795V3.13443ZM85.4288 107.167H141.36C149.128 107.167 155.565 100.848 155.565 92.9498V43.9801C155.565 36.0818 149.128 29.7631 141.36 29.7631H85.4288H32.383V107.167H85.4288Z" fill="black"/>
<rect x="456.096" y="53.9126" width="36.75" height="28.875" fill="black"/>
<defs>
<linearGradient id="paint0_linear_1226_585" x1="818.8" y1="194.581" x2="0.200439" y2="194.581" gradientUnits="userSpaceOnUse">
<stop stop-color="#74EBD5"/>
<stop offset="1" stop-color="#9688DD"/>
</linearGradient>
</defs>
</svg>
